<svg xmlns="http://www.w3.org/2000/svg" version="1.1" xmlns:xlink="http://www.w3.org/1999/xlink" xmlns:svgjs="http://svgjs.dev/svgjs" width="100%" height="100%" viewBox="0 0 1000 600"><rect width="1000" height="600" x="0" y="0" fill="#336699"/><g><circle r="166.66666666666666" cx="361.54577128092444" cy="383.76806181570987" fill="#6699cc" transform="matrix(0.6414229289265044,0,0,0.6414229289265044,0,53.84233574532932)"/><path d="M357.0405820504684 458.76807219575943L318.81141437107465 458.76807219575943Q310.89474749468786 458.76807219575943 303.9676639778495 453.50765538973934Q297.04058046101113 448.24723858371914 297.04058046101113 438.50765499237497L297.04058046101113 438.50765499237497L297.04058046101113 328.2472354048047Q297.04058046101113 319.65348517714807 302.87391394887504 314.1847350322756Q308.6551641020259 308.7680682221163 316.51974764369953 308.7680682221163L316.51974764369953 308.7680682221163L350.2697485377692 308.7680682221163Q372.7697491338157 308.7680682221163 389.8530829197028 317.9347351316167Q406.9364167055899 327.1534853758302 416.46766695808185 344.0284858228651Q426.0510005452868 360.90348626989993 426.0510005452868 384.49723689492083L426.0510005452868 384.49723689492083Q426.0510005452868 405.1222374412968 417.24891697877786 421.99723788833165Q408.3947500775559 438.8722383353665 392.8739163330609 448.82015526556296Q377.3009992538528 458.76807219575943 357.0405820504684 458.76807219575943L357.0405820504684 458.76807219575943ZM334.17599811143043 435.53890491372994L334.17599811143043 435.53890491372994L350.68641521547374 435.53890491372994Q375.06141586119077 435.53890491372994 387.76974953117997 422.57015457017536Q400.53016653588224 409.65348756133386 400.1655831928908 384.49723689492083L400.1655831928908 384.49723689492083Q399.80099984989926 359.02848622022935 387.040582845197 345.53890252954415Q374.2801658404947 331.99723550414575 350.2697485377692 331.99723550414575L350.2697485377692 331.99723550414575L334.5405814544219 331.99723550414575Q323.2905811563987 331.99723550414575 323.2905811563987 343.247235802169L323.2905811563987 343.247235802169L323.2905811563987 424.2889046157067Q323.2905811563987 435.53890491372994 334.17599811143043 435.53890491372994Z " fill="#003366" transform="matrix(0.6414229289265044,0,0,0.6414229289265044,0,53.84233574532932)"/><path d="M650.4226015795657 424.85502142582635L650.4226015795657 424.85502142582635Q639.190717935568 424.85502142582635 630.3139066685376 419.6376303137758Q621.4733272842298 414.4202392017252 616.5095593512372 405.1448772247464Q611.5457914182446 395.9057471304903 611.5457914182446 384.42024030743454L611.5457914182446 384.42024030743454Q611.5457914182446 373.18835666343676 616.5095593512372 364.34777727912893Q621.4733272842298 355.4709660120985 630.3139066685376 350.3622705482156Q639.190717935568 345.2898069670553 650.4226015795657 345.2898069670553L650.4226015795657 345.2898069670553Q657.705210006803 345.2898069670553 663.4660793596922 347.6448793440226Q669.1907168298587 349.9999517209898 673.3573833429547 354.1666182340858L673.3573833429547 354.1666182340858L673.3573833429547 317.64488044973194Q673.3573833429547 313.1883588748554 676.1110064298703 310.97821402877844Q678.8646295167858 308.7680691827014 682.2341946099851 308.7680691827014L682.2341946099851 308.7680691827014Q685.639991585907 308.7680691827014 688.3573827901 310.97821402877844Q691.1110058770156 313.1883588748554 691.1110058770156 317.64488044973194L691.1110058770156 317.64488044973194L691.1110058770156 416.7753115786924Q691.1110058770156 420.6883549127304 688.3573827901 422.753572227917Q685.639991585907 424.85502142582635 682.2341946099851 424.85502142582635L682.2341946099851 424.85502142582635Q678.8646295167858 424.85502142582635 676.1110064298703 422.753572227917Q673.3573833429547 420.6883549127304 673.3573833429547 416.7753115786924L673.3573833429547 416.7753115786924L673.3573833429547 415.7245869797378Q669.1907168298587 419.89125349283375 663.4660793596922 422.39125340069137Q657.705210006803 424.85502142582635 650.4226015795657 424.85502142582635ZM651.9805725366364 408.6956017315586L651.9805725366364 408.6956017315586Q661.9081084026216 408.6956017315586 667.6327458727881 402.02893531060516Q673.3573833429547 395.3622688896516 673.3573833429547 384.42024030743454L673.3573833429547 384.42024030743454Q673.3573833429547 373.9854580833334 667.6327458727881 367.71734237232823Q661.9081084026216 361.44922666132305 651.9805725366364 361.44922666132305L651.9805725366364 361.44922666132305Q641.7994134915933 361.44922666132305 635.5312977805881 367.71734237232823Q629.2994139523055 373.9854580833334 629.2994139523055 384.42024030743454L629.2994139523055 384.42024030743454Q629.2994139523055 395.3622688896516 635.5312977805881 402.02893531060516Q641.7994134915933 408.6956017315586 651.9805725366364 408.6956017315586ZM744.3356415964757 424.85502142582635L744.3356415964757 424.85502142582635Q733.1037579524781 424.85502142582635 724.2269466854476 419.6376303137758Q715.3863673011397 414.4202392017252 710.4225993681472 405.1448772247464Q705.4588314351546 395.9057471304903 705.4588314351546 384.42024030743454L705.4588314351546 384.42024030743454Q705.4588314351546 373.18835666343676 710.4225993681472 364.34777727912893Q715.3863673011397 355.4709660120985 724.2269466854476 350.3622705482156Q733.1037579524781 345.2898069670553 744.3356415964757 345.2898069670553L744.3356415964757 345.2898069670553Q751.618250023713 345.2898069670553 757.3791193766021 347.7535749921903Q763.1037568467688 350.2535749000479 767.2704233598647 354.1666182340858L767.2704233598647 354.1666182340858Q767.8139016007033 350.5071980791059 770.4225971567286 348.55067641208694Q773.0312927127538 346.594154745068 776.1472346268952 346.594154745068L776.1472346268952 346.594154745068Q779.553031602817 346.594154745068 782.27042280701 348.8042995911449Q785.0240458939256 351.0144444372219 785.0240458939256 355.4709660120985L785.0240458939256 355.4709660120985L785.0240458939256 416.7753115786924Q785.0240458939256 420.6883549127304 782.27042280701 422.753572227917Q779.553031602817 424.85502142582635 776.1472346268952 424.85502142582635L776.1472346268952 424.85502142582635Q772.7776695336958 424.85502142582635 770.0240464467802 422.753572227917Q767.2704233598647 420.6883549127304 767.2704233598647 416.7753115786924L767.2704233598647 416.7753115786924L767.2704233598647 415.7245869797378Q763.1037568467688 419.89125349283375 757.3791193766021 422.39125340069137Q751.618250023713 424.85502142582635 744.3356415964757 424.85502142582635ZM745.8936125535464 408.6956017315586L745.8936125535464 408.6956017315586Q755.8211484195315 408.6956017315586 761.5457858896981 402.02893531060516Q767.2704233598647 395.3622688896516 767.2704233598647 384.42024030743454L767.2704233598647 384.42024030743454Q767.2704233598647 373.9854580833334 761.5457858896981 367.71734237232823Q755.8211484195315 361.44922666132305 745.8936125535464 361.44922666132305L745.8936125535464 361.44922666132305Q735.7124535085034 361.44922666132305 729.4443377974982 367.71734237232823Q723.2124539692155 373.9854580833334 723.2124539692155 384.42024030743454L723.2124539692155 384.42024030743454Q723.2124539692155 395.3622688896516 729.4443377974982 402.02893531060516Q735.7124535085034 408.6956017315586 745.8936125535464 408.6956017315586ZM836.6907106563151 458.7680636541549L836.6907106563151 458.7680636541549Q831.1834644824839 458.7680636541549 824.4081024133627 457.7173390552003Q817.6327403442415 456.66661445624567 811.1110014541783 453.29704936304637L811.1110014541783 453.29704936304637Q806.1472335211859 450.6883538070211 806.1472335211859 445.21733951591256L806.1472335211859 445.21733951591256Q806.1472335211859 442.0651657190486 808.3573783672628 439.4564701630233Q810.6037550960623 436.84777460699803 813.9733201892617 436.84777460699803L813.9733201892617 436.84777460699803Q816.3283925662289 436.84777460699803 818.6834649431962 438.1521223850107L818.6834649431962 438.1521223850107Q823.6472328761887 440.760817941036 828.5747689264587 441.8115425399906Q833.5385368594511 442.86226713894524 838.2486816133858 442.86226713894524L838.2486816133858 442.86226713894524Q847.6327392385322 442.86226713894524 854.4081013076534 438.04342673684295Q861.1834633767746 433.18835445201813 861.1834633767746 422.753572227917L861.1834633767746 422.753572227917L861.1834633767746 415.47096380067984Q856.7631736846207 419.89125349283375 850.8936086835638 422.39125340069137Q845.024043682507 424.85502142582635 837.7052033725472 424.85502142582635L837.7052033725472 424.85502142582635Q827.016797969388 424.85502142582635 818.2849142332478 419.6376303137758Q809.5530304971077 414.4202392017252 804.4443350332249 405.2898047556367Q799.3718714520646 396.15937030954825 799.3718714520646 384.6738634864925L799.3718714520646 384.6738634864925Q799.3718714520646 373.18835666343676 804.3356393850571 364.05792221734833Q809.2994073180497 354.9274877712598 817.8863635232996 349.7100966592092Q826.509551611272 344.4927055471588 837.4515801934891 345.2898069670553L837.4515801934891 345.2898069670553Q845.024043682507 345.79705332517136 850.8936086835638 348.297053233029Q856.7631736846207 350.76082125816396 861.1834633767746 354.9274877712598L861.1834633767746 354.9274877712598Q861.1834633767746 351.3042994990025 863.6834632846322 348.9492271220352Q866.1472313097672 346.594154745068 870.0602746438051 346.594154745068L870.0602746438051 346.594154745068Q873.9733179778431 346.594154745068 876.4733178857007 348.9492271220352Q878.9370859108355 351.3042994990025 878.9370859108355 354.9274877712598L878.9370859108355 354.9274877712598L878.9370859108355 423.2970504687557Q878.9370859108355 435.28980364992736 873.3211440888367 443.2608178488935Q867.7052022668379 451.19560016513714 858.0675214626333 454.99994785100733Q848.4298406584288 458.7680636541549 836.6907106563151 458.7680636541549ZM839.8066525704564 408.6956017315586L839.8066525704564 408.6956017315586Q849.7341884364415 408.6956017315586 855.4588259066081 402.02893531060516Q861.1834633767746 395.3622688896516 861.1834633767746 384.42024030743454L861.1834633767746 384.42024030743454Q861.1834633767746 373.9854580833334 855.4588259066081 367.71734237232823Q849.7341884364415 361.44922666132305 839.8066525704564 361.44922666132305L839.8066525704564 361.44922666132305Q829.6254935254133 361.44922666132305 823.3573778144081 367.71734237232823Q817.1254939861255 373.9854580833334 817.1254939861255 384.6738634864925L817.1254939861255 384.6738634864925Q817.1254939861255 395.10864571059363 823.2486821662404 401.88400777971486Q829.3718703463553 408.6956017315586 839.8066525704564 408.6956017315586ZM936.0747649643337 424.85502142582635L936.0747649643337 424.85502142582635Q916.509548294144 424.85502142582635 905.5312878292043 413.6231377818286Q894.5892592469872 402.42748602055343 894.5892592469872 383.3695157084799L894.5892592469872 383.3695157084799Q894.5892592469872 366.6666177733736 905.6762153600946 355.9782123702145Q916.7631714732022 345.2898069670553 934.2269389454824 345.2898069670553L934.2269389454824 345.2898069670553Q951.1834600596467 345.2898069670553 961.3646191046898 355.0724153021501Q971.5457781497329 364.85502363724487 971.5457781497329 379.202849195384L971.5457781497329 379.202849195384Q971.5457781497329 384.9274866655505 968.5385318837593 387.82603728335636Q965.5312856177857 390.6883560184397 960.8573727465737 390.6883560184397L960.8573727465737 390.6883560184397L915.4588236951895 390.6883560184397Q912.8501281391641 390.6883560184397 913.6472295590607 393.55067475352297L913.6472295590607 393.55067475352297Q915.7124468742475 400.86951506348277 922.1254901161429 404.8912540456884Q928.5023014753158 408.9492249106166 936.5820113224497 408.9492249106166L936.5820113224497 408.9492249106166Q942.5965038543968 408.9492249106166 948.2124456763956 407.391253953546Q953.7921556156721 405.79705111375273 957.9950540114905 402.6811091996114L957.9950540114905 402.6811091996114Q959.2994017895032 401.6303846006568 961.3646191046898 401.6303846006568L961.3646191046898 401.6303846006568Q964.2269378397731 401.6303846006568 966.5820102167404 404.1303845085144Q968.9370825937076 406.5941525336494 968.9370825937076 409.9999495095712L968.9370825937076 409.9999495095712Q968.9370825937076 411.55792046664186 968.4298362355917 413.1158914237125Q967.886357994753 414.6738623807832 966.0747638586244 416.23183333785386L966.0747638586244 416.23183333785386Q959.2994017895032 421.19560127084645 951.5820107695951 423.0434272896976Q943.9008516324095 424.85502142582635 936.0747649643337 424.85502142582635ZM915.9660700533054 376.84777681841666L951.1834600596467 377.10139999747474Q952.77766289944 377.10139999747474 952.77766289944 375.5434290404041L952.77766289944 375.5434290404041Q952.77766289944 369.5651683911795 947.4153442564991 365.10864681630295Q942.0530256135582 360.68835712414904 934.2269389454824 360.68835712414904L934.2269389454824 360.68835712414904Q927.4515768763613 360.68835712414904 921.3283886962463 364.34777727912893Q915.2052005161315 367.9709655513862 913.9008527381188 373.9854580833334L913.9008527381188 373.9854580833334Q913.9008527381188 373.9854580833334 913.9008527381188 374.2390812623914L913.9008527381188 374.2390812623914Q913.6472295590607 375.289805861346 913.7559252072285 376.08690728124265Q913.9008527381188 376.84777681841666 915.9660700533054 376.84777681841666L915.9660700533054 376.84777681841666ZM1052.6689635655744 424.85502142582635L1052.6689635655744 424.85502142582635Q1049.2993984723753 424.85502142582635 1046.5457753854596 422.753572227917Q1043.7921522985441 420.6883549127304 1043.7921522985441 416.7753115786924L1043.7921522985441 416.7753115786924L1043.7921522985441 383.9129939493185Q1043.7921522985441 372.42748712626275 1038.7196887173839 366.9564728351542Q1033.6472251362234 361.44922666132305 1025.277660227309 361.44922666132305L1025.277660227309 361.44922666132305Q1014.58925482415 361.44922666132305 1009.7704144220477 368.3695162613346Q1004.9515740199454 375.289805861346 1004.9515740199454 383.6231388875379L1004.9515740199454 383.6231388875379L1004.9515740199454 416.7753115786924Q1004.9515740199454 420.6883549127304 1002.1979509330299 422.753572227917Q999.4443278461143 424.85502142582635 996.0747627529149 424.85502142582635L996.0747627529149 424.85502142582635Q992.6689657769931 424.85502142582635 989.9515745728002 422.753572227917Q987.1979514858846 420.6883549127304 987.1979514858846 416.7753115786924L987.1979514858846 416.7753115786924L987.1979514858846 355.4709660120985Q987.1979514858846 351.0144444372219 989.9515745728002 348.8042995911449Q992.6689657769931 346.594154745068 996.0747627529149 346.594154745068L996.0747627529149 346.594154745068Q999.4443278461143 346.594154745068 1002.1979509330299 348.8042995911449Q1004.9515740199454 351.0144444372219 1004.9515740199454 355.4709660120985L1004.9515740199454 355.4709660120985Q1009.3718637120994 351.0144444372219 1016.4008489602787 348.1521257021387Q1023.4660660911804 345.2898069670553 1029.7341818021855 345.2898069670553L1029.7341818021855 345.2898069670553Q1044.3356305393827 345.2898069670553 1052.9225867446326 354.6738645922018Q1061.545774832605 364.05792221734833 1061.545774832605 382.3187911095253L1061.545774832605 382.3187911095253L1061.545774832605 416.7753115786924Q1061.545774832605 420.6883549127304 1058.6834560975217 422.753572227917Q1055.8211373624383 424.85502142582635 1052.6689635655744 424.85502142582635ZM1097.0167880180043 426.15936920383893L1097.0167880180043 426.15936920383893Q1092.0530200850117 426.15936920383893 1088.538527460922 422.8984997588073Q1085.0240348368325 419.6376303137758 1085.0240348368325 415.21734062162176L1085.0240348368325 415.21734062162176Q1085.0240348368325 410.50719586768724 1088.538527460922 407.2463264226557Q1092.0530200850117 403.9854569776241 1097.0167880180043 403.9854569776241L1097.0167880180043 403.9854569776241Q1101.7269327719387 403.9854569776241 1105.096497865138 407.2463264226557Q1108.50229484106 410.50719586768724 1108.50229484106 415.21734062162176L1108.50229484106 415.21734062162176Q1108.50229484106 419.6376303137758 1105.096497865138 422.8984997588073Q1101.7269327719387 426.15936920383893 1097.0167880180043 426.15936920383893ZM1198.7559147029901 424.85502142582635L1198.7559147029901 424.85502142582635Q1195.3863496097906 424.85502142582635 1192.6327265228751 422.753572227917Q1189.8791034359597 420.6883549127304 1189.8791034359597 416.7753115786924L1189.8791034359597 416.7753115786924L1189.8791034359597 383.9129939493185Q1189.8791034359597 372.42748712626275 1184.8066398547994 366.9564728351542Q1179.7341762736392 361.44922666132305 1171.3646113647246 361.44922666132305L1171.3646113647246 361.44922666132305Q1160.6762059615655 361.44922666132305 1155.8573655594632 368.3695162613346Q1151.0385251573612 375.289805861346 1151.0385251573612 383.6231388875379L1151.0385251573612 383.6231388875379L1151.0385251573612 416.7753115786924Q1151.0385251573612 420.6883549127304 1148.2849020704455 422.753572227917Q1145.5312789835298 424.85502142582635 1142.1617138903305 424.85502142582635L1142.1617138903305 424.85502142582635Q1138.7559169144088 424.85502142582635 1136.0385257102157 422.753572227917Q1133.2849026233 420.6883549127304 1133.2849026233 416.7753115786924L1133.2849026233 416.7753115786924L1133.2849026233 355.4709660120985Q1133.2849026233 351.0144444372219 1136.0385257102157 348.8042995911449Q1138.7559169144088 346.594154745068 1142.1617138903305 346.594154745068L1142.1617138903305 346.594154745068Q1145.5312789835298 346.594154745068 1148.2849020704455 348.8042995911449Q1151.0385251573612 351.0144444372219 1151.0385251573612 355.4709660120985L1151.0385251573612 355.4709660120985Q1155.458814849515 351.0144444372219 1162.4878000976942 348.1521257021387Q1169.5530172285958 345.2898069670553 1175.8211329396013 345.2898069670553L1175.8211329396013 345.2898069670553Q1190.4225816767982 345.2898069670553 1199.009537882048 354.6738645922018Q1207.6327259700206 364.05792221734833 1207.6327259700206 382.3187911095253L1207.6327259700206 382.3187911095253L1207.6327259700206 416.7753115786924Q1207.6327259700206 420.6883549127304 1204.770407234937 422.753572227917Q1201.9080884998539 424.85502142582635 1198.7559147029901 424.85502142582635ZM1263.466057245506 424.85502142582635L1263.466057245506 424.85502142582635Q1243.9008405753164 424.85502142582635 1232.9225801103767 413.6231377818286Q1221.9805515281596 402.42748602055343 1221.9805515281596 383.3695157084799L1221.9805515281596 383.3695157084799Q1221.9805515281596 366.6666177733736 1233.067507641267 355.9782123702145Q1244.1544637543743 345.2898069670553 1261.6182312266546 345.2898069670553L1261.6182312266546 345.2898069670553Q1278.574752340819 345.2898069670553 1288.755911385862 355.0724153021501Q1298.9370704309054 364.85502363724487 1298.9370704309054 379.202849195384L1298.9370704309054 379.202849195384Q1298.9370704309054 384.9274866655505 1295.9298241649317 387.82603728335636Q1292.922577898958 390.6883560184397 1288.248665027746 390.6883560184397L1288.248665027746 390.6883560184397L1242.8501159763618 390.6883560184397Q1240.2414204203365 390.6883560184397 1241.038521840233 393.55067475352297L1241.038521840233 393.55067475352297Q1243.1037391554198 400.86951506348277 1249.5167823973152 404.8912540456884Q1255.8935937564881 408.9492249106166 1263.9733036036218 408.9492249106166L1263.9733036036218 408.9492249106166Q1269.9877961355692 408.9492249106166 1275.603737957568 407.391253953546Q1281.1834478968442 405.79705111375273 1285.386346292663 402.6811091996114L1285.386346292663 402.6811091996114Q1286.6906940706754 401.6303846006568 1288.755911385862 401.6303846006568L1288.755911385862 401.6303846006568Q1291.6182301209453 401.6303846006568 1293.9733024979125 404.1303845085144Q1296.32837487488 406.5941525336494 1296.32837487488 409.9999495095712L1296.32837487488 409.9999495095712Q1296.32837487488 411.55792046664186 1295.821128516764 413.1158914237125Q1295.2776502759252 414.6738623807832 1293.4660561397968 416.23183333785386L1293.4660561397968 416.23183333785386Q1286.6906940706754 421.19560127084645 1278.9733030507673 423.0434272896976Q1271.2921439135816 424.85502142582635 1263.466057245506 424.85502142582635ZM1243.3573623344778 376.84777681841666L1278.574752340819 377.10139999747474Q1280.168955180612 377.10139999747474 1280.168955180612 375.5434290404041L1280.168955180612 375.5434290404041Q1280.168955180612 369.5651683911795 1274.8066365376715 365.10864681630295Q1269.4443178947306 360.68835712414904 1261.6182312266546 360.68835712414904L1261.6182312266546 360.68835712414904Q1254.8428691575336 360.68835712414904 1248.7196809774186 364.34777727912893Q1242.5964927973037 367.9709655513862 1241.2921450192912 373.9854580833334L1241.2921450192912 373.9854580833334Q1241.2921450192912 373.9854580833334 1241.2921450192912 374.2390812623914L1241.2921450192912 374.2390812623914Q1241.038521840233 375.289805861346 1241.1472174884009 376.08690728124265Q1241.2921450192912 376.84777681841666 1243.3573623344778 376.84777681841666L1243.3573623344778 376.84777681841666ZM1344.0819963032316 424.85502142582635L1344.0819963032316 424.85502142582635Q1333.9008372581884 424.85502142582635 1327.3790983681251 418.58690571482117Q1320.857359478062 412.318790003816 1320.857359478062 399.81879046452815L1320.857359478062 399.81879046452815L1320.857359478062 366.6666177733736Q1320.857359478062 364.05792221734833 1318.248663922037 364.05792221734833L1318.248663922037 364.05792221734833L1313.5385191681023 364.05792221734833Q1310.168954074903 364.05792221734833 1307.8138816979358 361.8477773712713Q1305.4588093209684 359.6376325251944 1305.4588093209684 356.2318355492725L1305.4588093209684 356.2318355492725Q1305.4588093209684 352.6086472770151 1307.8138816979358 350.2535749000479Q1310.168954074903 347.8985025230806 1313.5385191681023 347.8985025230806L1313.5385191681023 347.8985025230806L1318.248663922037 347.8985025230806Q1320.857359478062 347.8985025230806 1320.857359478062 345.2898069670553L1320.857359478062 345.2898069670553L1320.857359478062 323.3695179198985Q1320.857359478062 319.7100977649186 1323.321127503197 317.49995291884164Q1325.8211274110545 315.28980807276463 1329.4443156833122 315.28980807276463L1329.4443156833122 315.28980807276463Q1333.3573590173498 315.28980807276463 1335.8573589252073 317.49995291884164Q1338.3211269503424 319.7100977649186 1338.3211269503424 323.3695179198985L1338.3211269503424 323.3695179198985L1338.3211269503424 345.2898069670553Q1338.3211269503424 347.8985025230806 1340.9298225063676 347.8985025230806L1340.9298225063676 347.8985025230806L1355.0240248854486 347.8985025230806Q1358.1399667995902 347.8985025230806 1360.4950391765574 350.2535749000479Q1362.8501115535246 352.6086472770151 1362.8501115535246 356.2318355492725L1362.8501115535246 356.2318355492725Q1362.8501115535246 359.6376325251944 1360.6399667074475 361.8477773712713Q1358.4298218613708 364.05792221734833 1354.7704017063907 364.05792221734833L1354.7704017063907 364.05792221734833L1340.9298225063676 364.05792221734833Q1338.3211269503424 364.05792221734833 1338.3211269503424 366.6666177733736L1338.3211269503424 366.6666177733736L1338.3211269503424 397.46371808756084Q1338.3211269503424 408.405746669778 1347.197938217373 408.405746669778L1347.197938217373 408.405746669778Q1349.806633773398 408.405746669778 1352.6689525084814 407.644877132604Q1355.5312712435648 406.84777571270735 1356.5819958425193 406.84777571270735L1356.5819958425193 406.84777571270735Q1360.2414159974992 406.84777571270735 1362.1979376645181 409.20284808967466Q1364.154459331537 411.55792046664186 1364.154459331537 414.6738623807832L1364.154459331537 414.6738623807832Q1364.154459331537 417.0289347577505 1362.8501115535246 419.2390796038274Q1361.5457637755117 421.4492244499044 1358.6834450404285 422.49994904885904L1358.6834450404285 422.49994904885904Q1355.8211263053454 423.55067364781365 1351.509532261359 424.20284753682Q1347.197938217373 424.85502142582635 1344.0819963032316 424.85502142582635Z " fill="#6699cc" transform="matrix(0.6414229289265044,0,0,0.6414229289265044,0,53.84233574532932)"/></g></svg>